<svg id="visual" viewBox="0 0 900 200" width="900" height="200" xmlns="http://www.w3.org/2000/svg" xmlns:xlink="http://www.w3.org/1999/xlink" version="1.1"><path d="M0 27L82 27L82 33L164 33L164 17L245 17L245 45L327 45L327 27L409 27L409 41L491 41L491 33L573 33L573 41L655 41L655 23L736 23L736 21L818 21L818 39L900 39L900 15L900 0L900 0L818 0L818 0L736 0L736 0L655 0L655 0L573 0L573 0L491 0L491 0L409 0L409 0L327 0L327 0L245 0L245 0L164 0L164 0L82 0L82 0L0 0Z" fill="#eef0f2"></path><path d="M0 49L82 49L82 65L164 65L164 31L245 31L245 57L327 57L327 47L409 47L409 67L491 67L491 63L573 63L573 59L655 59L655 55L736 55L736 53L818 53L818 55L900 55L900 29L900 13L900 37L818 37L818 19L736 19L736 21L655 21L655 39L573 39L573 31L491 31L491 39L409 39L409 25L327 25L327 43L245 43L245 15L164 15L164 31L82 31L82 25L0 25Z" fill="#bdd3de"></path><path d="M0 91L82 91L82 137L164 137L164 71L245 71L245 85L327 85L327 107L409 107L409 129L491 129L491 127L573 127L573 99L655 99L655 105L736 105L736 121L818 121L818 117L900 117L900 99L900 27L900 53L818 53L818 51L736 51L736 53L655 53L655 57L573 57L573 61L491 61L491 65L409 65L409 45L327 45L327 55L245 55L245 29L164 29L164 63L82 63L82 47L0 47Z" fill="#86b8c3"></path><path d="M0 167L82 167L82 165L164 165L164 147L245 147L245 161L327 161L327 179L409 179L409 171L491 171L491 179L573 179L573 163L655 163L655 177L736 177L736 183L818 183L818 159L900 159L900 143L900 97L900 115L818 115L818 119L736 119L736 103L655 103L655 97L573 97L573 125L491 125L491 127L409 127L409 105L327 105L327 83L245 83L245 69L164 69L164 135L82 135L82 89L0 89Z" fill="#4c9e9f"></path><path d="M0 201L82 201L82 201L164 201L164 201L245 201L245 201L327 201L327 201L409 201L409 201L491 201L491 201L573 201L573 201L655 201L655 201L736 201L736 201L818 201L818 201L900 201L900 201L900 141L900 157L818 157L818 181L736 181L736 175L655 175L655 161L573 161L573 177L491 177L491 169L409 169L409 177L327 177L327 159L245 159L245 145L164 145L164 163L82 163L82 165L0 165Z" fill="#038373"></path></svg>